<?xml version="1.0" encoding="UTF-8"?>
<svg xmlns="http://www.w3.org/2000/svg" viewBox="0 0 194.55 212.17">
  <defs>
    <style>
      .cls-1, .cls-2, .cls-3, .cls-4, .cls-5, .cls-6, .cls-7, .cls-8, .cls-9, .cls-10, .cls-11, .cls-12, .cls-13, .cls-14 {
        stroke-miterlimit: 10;
      }

      .cls-1, .cls-2, .cls-4, .cls-5, .cls-8, .cls-9, .cls-10, .cls-12, .cls-13, .cls-14 {
        stroke: #000;
      }

      .cls-1, .cls-3, .cls-15, .cls-7, .cls-12 {
        fill: none;
      }

      .cls-2, .cls-16, .cls-5, .cls-10 {
        fill: #765442;
      }

      .cls-3 {
        stroke: #7e7f81;
      }

      .cls-4, .cls-5, .cls-6, .cls-8, .cls-9, .cls-10, .cls-11, .cls-12, .cls-14 {
        stroke-linecap: round;
      }

      .cls-6 {
        fill: #d6d0bf;
      }

      .cls-6, .cls-11 {
        stroke: #050505;
      }

      .cls-7 {
        stroke: #765442;
      }

      .cls-8, .cls-13 {
        fill: #7e7f81;
      }

      .cls-9 {
        fill: #e4e3e3;
      }

      .cls-10 {
        stroke-width: 1.2px;
      }

      .cls-11 {
        fill: #ba940b;
      }

      .cls-14 {
        fill: #454545;
      }

      .hidden{
        display:none;
      } 
      </style>
  </defs>
  <g id="Base">
    <g id="Pinguin">
      <path class="cls-11" d="M146.72,198.52c-.15.27-.27.44-.27.44-1.34,2.12-5.15,1.41-5.15,1.41,0,0-3.07-1.34-2.79-6.24.28-4.91,1.1-5.33,1.1-5.33,0,0,2.29.24,3.61-.18h0s4.17,7.72,4.17,7.72c.14.64-.35,1.62-.68,2.18Z"/>
      <path class="cls-14" d="M141.3,200.37s-2.12-.14-5.93,0c-3.81.15-9.6,4.66-16.94,7.06-7.34,2.4-42.07,2.54-47.58,2.4-3.44-.09-3.46-2,5.26-5.66,0,0-5.82-.41-13.59-3.94-1.96-.89-3.72-1.74-5.26-2.52-4.55-2.31-7.16-3.97-7.16-3.97,0,0,68.33-14.97,89.51-4.94,0,0-1.13,8.89,1.69,11.57Z"/>
      <path class="cls-14" d="M167.63,189.22s-11.08,3.74-12.25,6.99c0,0-5.27,1.04-7.98.13-.37-.12-.69-.28-.95-.48-2.12-1.7-3.45-5.84-3.32-6.64,0,0,.02-.22.1-.59.34-1.81,1.91-7.18,8.3-7.24,7.7-.07,14.05.35,16.1,7.83Z"/>
      <path class="cls-4" d="M193.32,196.71s-14.61-3.96-20.04-2.76c0,0-5.02,1.22-8.47,2.76h-.15c-1.09.05-7.57.28-9.28-.5,1.17-3.25,12.25-6.99,12.25-6.99,0,0,21.1,1.08,25.69,7.49Z"/>
      <path class="cls-6" d="M164.81,196.71s-4.42,3.1-10.52,3.63c-.75.07-1.43.09-2.05.07-4.4-.08-5.52-1.89-5.52-1.89.33-.56.82-1.54.68-2.18,2.71.91,7.98-.13,7.98-.13,1.71.78,8.19.55,9.28.51h.15Z"/>
      <path class="cls-9" d="M149.13,208.42c-4.87,2.47-28.44,2.75-28.44,2.75,0,0-48.78,2.4-57.04-3.31,0,0-3.39-2.54-7.48-.85-1.53.63-2.44,1.03-2.98,1.28-.27.13-.56-.13-.46-.41.37-1.08.96-2.95.98-4.02,0-.1.04-.19.12-.26.63-.48,3.43-2.77,3.47-5.34,0-.24.26-.4.48-.29,1.41.71,3,1.47,4.74,2.26,5.64,2.56,10.26,3.48,12.36,3.79.34.05.38.51.07.65-7.55,3.34-7.38,5.08-4.1,5.16,5.51.14,40.24,0,47.58-2.4,7.34-2.4,13.13-6.91,16.94-7.06,3.65-.13,5.75-.01,5.92,0,.01,0,0,0,.02,0,.22.04,3.84.64,5.14-1.41,0,0,.12-.17.27-.44,0,0,1.08,1.74,5.27,1.88.15,0,.29.11.32.26.27,1.11,1.08,5.6-3.18,7.76Z"/>
      <path class="cls-14" d="M53.7,203.69c.07,1.4-1.13,4.63-1.26,4.98h-.01v.03c-1.26,1.57-4.82,1.1-6.58,1.05-1.78-.06-.11-1.28-.11-2.2s-2.01-.8-1.27-2.04c.74-1.24,9.23-1.82,9.23-1.82Z"/>
      <path class="cls-14" d="M76.11,204.17s17.05-10.41,42.74-10.57c0,0,15.04-.11,13.29,3.65"/>
      <path class="cls-14" d="M150.76,188.62s4.59-3.28,9.25-1.3"/>
      <path class="cls-4" d="M153.76,187.19s2.2,2.51,4.14-.44"/>
    </g>
  </g>
  <g id="Frame_1" data-name="Frame 1">
    <g id="Sassy">
      <line class="cls-10" x1="108.18" y1="162.79" x2="109.72" y2="161.52"/>
      <path class="cls-10" d="M128.49,23.18c0,.78-1.95,5.86-3.54,10.31v.02c-.78,2.18-1.47,4.21-1.81,5.5-1.01,3.92-3.76,7.36-4.02,10.64-.27,3.28-3.07,3.02-3.07,3.02,0,0-.65.69-1.58,1.41-.26.2-.53.41-.83.6-1.08.72-2.35,1.29-3.42,1.01-1.6-.43-1.65-3.3-1.5-5.13.06-.89.18-1.54.18-1.54,0,0-.47.32-1.23.66-1.35.61-3.63,1.29-5.86.34-2.44-1.03-1.48-4.07-.67-5.81.35-.76.67-1.28.67-1.28,0,0-1.24-.17-2.86-.55-1.5-.34-3.32-.87-4.78-1.59-1.01-.49-1.84-1.08-2.26-1.78-1.7-2.78,5.18-5.19,5.18-5.19,2.07-1.37,1.54-2.01,10.86-13.29,9.31-11.27,9.37-10.43,14.66-10.8,5.3-.37,5.88,12.29,5.88,13.45Z"/>
      <path class="cls-10" d="M124.09,43.03c.06,2.23-.21,5.19-1.69,4.93-1.48-.27.32,4.29.37,10.64.04,4.59-.37,4.9-2.09,4.26-.66-.25-1.52-.64-2.62-.98-2.85-.87-3.46-4.52-3.57-6.5-.05-.78-.02-1.3-.02-1.3.93-.72,1.58-1.41,1.58-1.41,0,0,2.8.26,3.07-3.02.26-3.28,3.01-6.72,4.02-10.64.34-1.29,1.03-3.32,1.81-5.5-.06.43-.91,7.37-.86,9.52Z"/>
      <path class="cls-8" d="M93.72,192.82c-2.96-.07-17.01,1.13-19.83-2.12-2.76-3.16,2.54-9.84,2.81-10.17-1.92,2.81,11.05,6.87,12.08,3.96.21,2.61,6.02,2.11,11.52,4.94s-3.61,3.46-6.58,3.39Z"/>
      <path class="cls-5" d="M121.39,142.51c.74,5.29,5.56,31.82,7.04,33.78l-.02.02c-.43.39-7.7,6.94-9.19,6.33-1.53-.64-2.96-2.7-3.91-6.57-.96-3.86-1.33-11.01-5.56-12.91-4.24-1.91-1.75,3.91-8.05,8.04-6.3,4.13-11.89,10.38-12.92,13.29-1.03,2.91-14-1.15-12.08-3.96h.01c1.96-2.81,12.44-19.38,18.16-21.4,0,0,2.17-1-.69-7.04-2.86-6.03-3.55-8.57-3.55-8.57,0,0-5.34-1.38-12.12-11.44-6.78-10.06-4.98-23.24-4.98-23.24,0,0,3.34-25.68,5.62-31.24,2.27-5.55,1.53-10.64,1.53-10.64,0,0-8.36.43-9.95,1.75-1.24,1.03-10.79,10.05-15.63,13.94h-.01c-1.36,1.1-2.35,1.79-2.68,1.78-1.48-.05-9.1-4.07-8.52-5.5,0,0,13.34-18.64,18.21-20.65,4.87-2.01,17.47-6.78,24.35-10.16,4.46-2.2,6.69-5.37,7.72-7.33,1.46.72,3.28,1.25,4.78,1.59,1.62.38,2.86.55,2.86.55,0,0-.32.52-.67,1.28-.81,1.74-1.77,4.78.67,5.81,2.23.95,4.51.27,5.86-.34.76-.34,1.23-.66,1.23-.66,0,0-.12.65-.18,1.54-.15,1.83-.1,4.7,1.5,5.13,1.07.28,2.34-.29,3.42-1.01l.85.7c.11,1.98.72,5.63,3.57,6.5,1.1.34,1.96.73,2.62.98.65,4.1,1.68,11.9.93,16.07-1.06,5.82-4.13,19.8,7.3,35.15,0,0-6.32,2.47-6.7,5.1,0,.07-.09.09-.13.03l-7.94-10.8s-2.59,13.34-5.35,18.26c0,0,11.86,10.54,12.6,15.83Z"/>
      <path class="cls-8" d="M132.9,183.86c-.95.45-2.39,1.31-4,2.17-3.17,1.69-7.02,3.4-9.27,2.15-1.39-.77-1.71-1.84-1.6-2.83.15-1.43,1.19-2.71,1.19-2.71,1.49.61,8.76-5.94,9.19-6.33l.02-.02s12.16-.83,13.79.93c1.62,1.77-6.5,5.3-9.32,6.64Z"/>
      <path class="cls-5" d="M80.68,66.96s18.76-1.62,21.3-4.31"/>
      <path class="cls-5" d="M108.8,126.68s-5.4-8.96-11.75-11.72-6.14-1.91-6.14-1.91"/>
      <path class="cls-5" d="M90.64,143.51s15.79,5.08,17.38,10.62,1.95,9.13,1.95,9.13"/>
      <path class="cls-5" d="M95.52,158.2s3.99,1.37,4.35,2.71"/>
      <path class="cls-8" d="M54.21,87.35c.32,3.12-.53,3.12-1.8,1.74-1.27-1.37-5.4.43-8.79,1.7s-4.44,3.6-4.39-.43c.05-4.02,4.66-11.43,4.66-11.43-.58,1.43,7.04,5.45,8.52,5.5.33.01,1.32-.68,2.68-1.77-.12.17-1.18,1.73-.88,4.69Z"/>
      <path class="cls-8" d="M122.19,119.37s11.35,8,13.29,8,.56-2.73-1.48-5.74-5.08-7.44-5.08-7.44c0,0-6.4,2.43-6.72,5.18Z"/>
      <path class="cls-8" d="M101.98,113.55s-.99-33.11-.42-35.44,1.62-3.25,3.6-4.16,3.46-1.69,5.29.92,5.65,3.88,5.65,3.88c0,0,4.66,4.45,2.26,9.04s-3.53,29.79-7.41,29.29-8.4-1.27-8.96-3.53Z"/>
      <path class="cls-12" d="M105.62,84.85s7.31.11,8.36,2.75"/>
    </g>
  </g>
  <g id="Frame_2" data-name="Frame 2">
    <g id="Sassy-2" data-name="Sassy">
      <path class="cls-2" d="M126.33,41.58c-1.39-.78-.92.47-1.41,2.76-.11.52-.27,1.09-.51,1.71-1.3,3.34-4.94-6.45-4.94-6.45.07-.12.13-.24.21-.36,1.48-2.53,3.93-4.89,6.05-7.01.21-.21.41-.44.6-.71,0,0-.07,2.22.73,5.48.79,3.25.98,5.53-.73,4.58Z"/>
      <path class="cls-2" d="M168.9,122.37c-.7,4.25-3.43,8.11-5.22,10.25-.14-.03-.28-.06-.43-.08-7.62-1.27-15.03-7.41-22.37-8.4-7.35-.99-32.4.99-32.4.99l-18.15-1.98c3.32,1.91,18.15,1.98,18.15,1.98,0,0,1.83,15.03,1.97,23.15s-7.48,15.39-14.4,25.06c-6.92,9.67-6.42,12.85-6.42,12.85,0,0-7.84,1.06-10.66-2.54-.59-.75-1.13-1.07-1.62-1.09,0,0,1.2-2.37,4.09-10.28,2.89-7.91,4.52-14.47,6.07-19.27,1.55-4.8-1.9-11.79-4.02-22.59s-5.01-17.5-8.54-24.49c-3.53-6.99,4.73-48,10.44-56.83,0,0-16.16-2.18-27.81,2.76-4.1,1.74-7.29,3.43-9.74,4.83-.56-1.71-2.79-4.71-4.89-7.28,2.69-1.31,9.53-12.74,28.89-17.39,8.92-2.14,16.19-3.89,21.56-5.2-.03.04-.05.05-.05.05l4.45-.02c4.45-.02,4.36,1.75,2.1,4.8-2.26,3.05,2.17,2.58,6.55,1.78,4.37-.79,2.04,1.06,1.99,3.83-.05,2.77,4.27-.7,7.47-1.32.12-.02.23-.04.34-.04h.01c.86,0,1.39.7,1.7,1.66.57,1.74.45,4.35.39,5.26.14-1.1.54-2.17,1.12-3.22,0,0,3.64,9.79,4.94,6.45.24-.62.4-1.19.51-1.71l1.41,1.38s.52,4.12-1.67,13.71c0,.01-.01.01-.01.02-1.61,2.61-2.95,1.05-5.16.63-2.23-.42-3.28,3.6-3.5,2.12-.21-1.48-1.16-5.72-3.17-5.3-2.01.43-3.18-3.07-5.3-5.4-2.11-2.33-3.39,8.9-4.63,11.76-1.24,2.86,1.46,11.22,0,18.87-1.42,7.48-.06,14.2,0,14.5-6.78-1.06-12.87-1.67-15.73-1.08l15.73,1.08h0c4.95.78,10.27,1.8,14.98,2.77,5.08,1.04,9.44,2.02,11.85,2.57,7.7,1.77,33.81,17.23,38.54,20.12.21.13.42.22.64.28Z"/>
      <path class="cls-8" d="M92.59,194.23c-4.73,1.34-6.49-.28-11.78-.63-5.3-.36-6.15-3.18-6.29-5.23-.11-1.62.98-5.89,2.83-5.81.49.02,1.03.34,1.62,1.09,2.82,3.6,10.66,2.54,10.66,2.54.42,1.83,10.02,2.75,11.79,5.29,1.76,2.54-4.1,1.41-8.83,2.75Z"/>
      <path class="cls-8" d="M176.73,129.43c-3.74,9.07-5.77,4.56-13.05,3.19,1.79-2.14,4.52-6,5.22-10.25,4.55,1.28,9.42-12.71,11.58-11.36,2.25,1.41.07,9.18-3.75,18.42Z"/>
      <path class="cls-8" d="M47.84,56.69c-4.52,2.57-6.53,4.13-7.13,3.07-.92-1.62,0-2.96,0-2.96,0,0-9.74,6.77-11.5,2.61-1.77-4.16,10.94-9.95,13.27-9.88.14,0,.3-.04.47-.12,2.1,2.57,4.33,5.57,4.89,7.28Z"/>
      <path class="cls-8" d="M124.65,59.45c-.8,3.5-1.96,7.73-3.64,12.75-.06.18-.12.36-.18.55-1.54,4.54-2.51,8.42-3.11,11.71-1.91,10.6.15,14.94.15,14.94-4.71-.97-10.03-1.99-14.98-2.76h0c-.06-.31-1.42-7.03,0-14.51,1.46-7.65-1.24-16.01,0-18.87,1.24-2.86,2.52-14.09,4.63-11.76,2.12,2.33,3.29,5.83,5.3,5.4,2.01-.42,2.96,3.82,3.17,5.3.22,1.48,1.27-2.54,3.5-2.12,2.21.42,3.55,1.98,5.16-.63Z"/>
      <path class="cls-2" d="M102.89,96.63l-15.73-1.08c2.86-.59,8.95.02,15.73,1.08Z"/>
      <path class="cls-2" d="M108.48,125.13s-14.83-.07-18.15-1.98l18.15,1.98Z"/>
      <path class="cls-2" d="M131.45,7.99c-1.68,10.48-2.44,19.77-5.12,23.53-.19.27-.39.5-.6.71-2.12,2.12-4.57,4.48-6.05,7.01-.08.12-.14.24-.21.36-.58,1.05-.98,2.12-1.12,3.22.06-.91.18-3.52-.39-5.26-.31-.96-.84-1.66-1.7-1.66h-.01c-.11,0-.22.02-.34.04-3.2.62-7.52,4.09-7.47,1.32.05-2.77,2.38-4.62-1.99-3.83-4.38.8-8.81,1.27-6.55-1.78,2.26-3.05,2.35-4.82-2.1-4.8l-4.45.02s.02-.01.05-.05c.58-.43,6.09-4.76.57-5.49,0,0,14.19-7.7,18.64-14.65,4.44-6.95,20.64-9.92,18.84,1.31Z"/>
      <path class="cls-2" d="M102.89,96.63l-15.73-1.08c2.86-.59,8.95.02,15.73,1.08Z"/>
      <path class="cls-2" d="M108.48,125.13s-14.83-.07-18.15-1.98l18.15,1.98Z"/>
      <path class="cls-2" d="M141.28,84.84c-5.04,2.07-5.69,7.22-5.69,7.22-1.58-.18-3.34-.4-5.25-.64-6.35-.79-12.62-6.96-12.62-6.96.6-3.29,1.57-7.17,3.11-11.71.06-.19.12-.37.18-.55,0,0,2.5,6.48,11.11,9.59,2.59.93,5.9,1.95,9.16,3.05Z"/>
      <path class="cls-3" d="M108.48,76.38s6.71-4.13,9.39.95"/>
      <path class="cls-3" d="M112.4,80.41s2.75-1.16,3.28.74"/>
      <path class="cls-8" d="M153.58,94.14s-1.9,1.62-4.3-1.13c-2.4-2.75-7.32-3.71-7.93-2.36,0,0,3.66,1.37,1.82,1.76-1.28.27-3.93.07-7.58-.35,0,0,.65-5.15,5.69-7.22h0c7.58,2.58,14.9,5.65,12.29,9.3Z"/>
    </g>
  </g>
  <g id="Frame_3" data-name="Frame 3">
    <g id="Sassy-3" data-name="Sassy">
      <path class="cls-8" d="M57.02,89.2s.05,1.69-1.49.32c-1.53-1.38-.9-1.86-3.38.84-2.49,2.7-5.67,7.84-6.78,7.2-1.11-.63-.85-5.93.69-11.22.6-2.06,1.18-4.3,1.93-6.53-.12.45-.12,1.64,2.82,2.26,3.67.78,1.97,2.47,4.65,2.26,1.38-.11,2.03-.54,2.34-.93-.61,1.69-.9,3.58-.78,5.8Z"/>
      <path class="cls-8" d="M96.83,191.52c-6.67,1.59-1.7,3.14-13.66.67-11.96-2.47-10.8-1.6-9.64-5.53.29-.99,1.24-3.2,2.58-6.02,0,0,0-.01.01-.01.07-.1.59-.54,2.92,2.7,2.54,3.52,9.53.78,9.53.78,0,0,4.02,3.7,8.26,3.7s6.67,2.12,0,3.71Z"/>
      <path class="cls-8" d="M155.12,179.08c-4.77,4.13-7.79,9.37-9.43,9.9-1.64.53-3.01,1.11-4.13,2.38-1.11,1.27-4.92.16-7.04-3.12-.62-.97-1.67-2.69-2.96-4.73,0,0,7.06.03,8.54-2.51,1.48-2.54,3.02-3.27,3.02-3.27,1.36,1.14,6.35-2.65,8.03-2.41,1.9.26,8.73-.37,3.97,3.76Z"/>
      <path class="cls-8" d="M129.71,130.7c-2.44,3.76-2.7-3.7-4.77-4.5-1.84-.71-5-6.4-5.87-8.36,0,0,5.28-5.01,6.66-4.36.07.42.11.65.11.65,0,0,6.3,12.82,3.87,16.57Z"/>
      <path class="cls-2" d="M125.73,113.48c-1.38-.65-6.66,4.36-6.66,4.36-.11-.24-.19-.42-.22-.53-.32-1.06-1.37-2.91-1.37-2.91.05-3.92,5.12-21.13,5.12-21.13.03.36.07.75.12,1.17.55,4.53,2.52,16.16,3.01,19.04Z"/>
      <path class="cls-2" d="M142.78,177.77c-.26-3.02-7.09-14.88-7.09-14.88,0,0-5.61-9.69-9.8-20.27-4.18-10.59-11.38-17.32-11.38-17.32,0,0,.48-2.01.37-5.93-.1-3.91,2.6-4.97,2.6-4.97.05-3.92,5.12-21.13,5.12-21.13-.32-4.13.87-4.84,2.82-8.2,2.11-3.65-.53-21.07-.85-23.93-.04-.38-.49-1.1-1.23-2.07-.97,1.27-6.47-5.97-6.47-5.97-1.76,2.95-3.11,5.08-3.36,5.18,0,0,.15-4.55-1.91-3.71-2.07.85-2.49,3.55-3.12-.84-.64-4.4.05-7.84-2.65-6.3-2.7,1.53-2.54.74-2.38-.37.16-1.11.53-3.44-.74-3.34-1.28.11-1.86-1.43-1.7-3.49.16-2.07-6.2-1.36-6.2-1.36-3.33,1.9-7.32,4.01-9.58,4.64-4.39,1.22-4.23,1.91-8.84,4.82-4.6,2.91-13.92,11.59-16.2,13.34-2.27,1.75-2.27,4.55-6.72,8.68-2.67,2.48-4.26,5.84-5.42,9.27,0,0-.04.07-.06.19-.12.45-.12,1.64,2.82,2.26,3.67.78,1.97,2.47,4.65,2.26,1.38-.11,2.03-.54,2.34-.93.08-.24.17-.48.28-.71h0c1.75-4.15,5.44-7.1,9.53-10.75,5.92-5.29,18.52-7.52,18.52-7.52,0,0,.85,2.44-6.45,20.86-7.31,18.42-4.35,35.26.21,49.13,4.55,13.87,18,18.21,12.07,22.13-4.43,2.93-11.88,16.56-15.84,24.9.07-.1.59-.54,2.92,2.7,2.54,3.52,9.53.78,9.53.78,0,0,18.74-20.6,19.06-23.3s2.59-5.66,2.59-5.66c0,0,6.36,9.63,10.8,13.87,3.13,2.98,7.49,9.65,10.54,14.49,0,0,7.06.03,8.54-2.51,1.48-2.54,3.02-3.27,3.02-3.27-.19-.16-.31-.41-.34-.77ZM109.02,118.56c-2.7-3.1-6.1-6.72-9.51-9.57,0,0-1.19-12.01,0-12.12,1.18-.1,2.77-2.7,2.14-4.02-.64-1.32,1-7.57,1.48-10.59.48-3.01-2.07-11.17,2.54-12.86,4.61-1.7,3.86,4.55,5.51,5.66,1.64,1.11,1.69,1.33,2.38,3.34.69,2.01,4.02,3.17,5.08,1.11s3.76-4.87,4.66-3.07c.9,1.8-.27,9.16-1.22,10.69-.37.6-.82,1.51-1.27,2.51-.7,1.56-1.42,3.37-1.9,4.69-.8,2.17.15,5.88-2.6,10.54-2.75,4.66.58,7.62-1.8,9.1-2.38,1.49-5.49,4.59-5.49,4.59Z"/>
      <path class="cls-2" d="M110.23,155.95s-.58-2.86-8.42-6.99-20.22-17.1-20.22-17.1"/>
      <path class="cls-2" d="M99.51,108.99c-2.86-2.39-5.73-4.23-8.19-4.76"/>
      <path class="cls-2" d="M114.51,125.3s-2.23-3-5.49-6.74"/>
      <path class="cls-8" d="M122.08,87.13c-.37.6-.82,1.51-1.27,2.51-.7,1.56-1.42,3.37-1.9,4.69-.8,2.17.15,5.88-2.6,10.54-2.75,4.66.58,7.62-1.8,9.1-2.38,1.49-5.49,4.59-5.49,4.59-2.7-3.1-6.1-6.72-9.51-9.57,0,0-1.19-12.01,0-12.12,1.18-.1,2.77-2.7,2.14-4.02-.64-1.32,1-7.57,1.48-10.59.48-3.01-2.07-11.17,2.54-12.86,4.61-1.7,3.86,4.55,5.51,5.66,1.64,1.11,1.69,1.33,2.38,3.34.69,2.01,4.02,3.17,5.08,1.11s3.76-4.87,4.66-3.07c.9,1.8-.27,9.16-1.22,10.69Z"/>
      <path class="cls-8" d="M120.81,89.64s-4.29-3.73-8.79-3.94"/>
      <path class="cls-15" d="M86.14,64.42s9-6.14,13.45-5.03"/>
      <path class="cls-2" d="M127.48,34.77s-.19.34-.53.95c-.72,1.25-2.05,3.59-3.62,6.32-1.89,3.29-4.12,7.14-5.98,10.27-.16.27-.32.53-.48.79-1.76,2.95-3.11,5.08-3.36,5.18,0,0,.15-4.55-1.91-3.71-2.07.85-2.49,3.55-3.12-.84-.64-4.4.05-7.84-2.65-6.3-2.7,1.53-2.54.74-2.38-.37.16-1.11.53-3.44-.74-3.34-1.28.11-1.86-1.43-1.7-3.49.16-2.07-6.2-1.36-6.2-1.36h.01c.42-.45,13.83-14.43,15.24-18.5,1.43-4.12,5.19-8.84,10.65-8.52,5.45.32,8.31.8,8.62,6.41.32,5.61-1.21,14.24-1.85,16.51Z"/>
      <path class="cls-2" d="M123.34,59.07c-.97,1.27-6.47-5.97-6.47-5.97.16-.26.32-.52.48-.79,1.86-3.13,4.09-6.98,5.98-10.27,0,0,.69,2.1,1.48,4.58h.01c.81,2.52,1.76,5.43,2.24,6.84.95,2.81-2.75,4.34-3.72,5.61Z"/>
      <path class="cls-2" d="M127.64,47.69c-1.01.15-2.66-.96-2.82-1.07h-.01c-.79-2.48-1.48-4.58-1.48-4.58,1.57-2.73,2.9-5.07,3.62-6.32,0,0,1.75,11.81.69,11.97Z"/>
      <path class="cls-15" d="M58.08,82.69c0,.06-.01.37-.28.71"/>
    </g>
  </g>
  <g id="Frame_4" data-name="Frame 4">
    <g id="Sassy-4" data-name="Sassy">
      <path class="cls-13" d="M67.18,209.11c-3.65-2.38-13.66-5.58-12.6-8.69.61-1.8,1.13-4.94,1.73-7.47,0,0,4.31-.76,5.86,1.95,1.55,2.72,5.01,3.98,5.01,3.98,0,0,1.96,7.14,5.67,9.07,3.7,1.92-2.02,3.54-5.67,1.16Z"/>
      <path class="cls-13" d="M99.85,190.47c-1.49,1.12-10.7,5.03-18.06,2.28-6.89-2.57-8.16-2.33-8.3-2.29.04-.19,1.44-5.59,3.26-7.01.36-.29.74-.41,1.13-.3,2.36.67,7.23,3.25,10.58.87,1.12,1.58,12.87,5.34,11.39,6.45Z"/>
      <path class="cls-2" d="M106.53,50.62c-.4.39-.78.73-1.12,1.04-4.29,3.81-4.4,3.23-4.61.59-.21-2.65-1.06-3.92-2.91-2.28-1.86,1.64-1.27-3.18-2.54-3.28-1.27-.11-1.86-1.12-2.17-2.65-.32-1.54-6.41.95-3.5-1.32,2.91-2.28,1.59-3.5-.95-3.13-2.54.37-2.12-1.06-.21-2.49,1.4-1.06-.13-1.44-1.71-1.53-3.76,2.71-7.87,5.66-10.15,7.25-4.93,3.44-5.14,13.4-7.78,20.49-1.7,4.56-1.2,15.39-1.24,24.67h0c-.02,5.17-.21,9.84-1.04,12.71-2.33,8.04-.53,27.79-.53,39.33s2.59,12.02,2.01,19.22-8.89,28.8-10.27,29.86c-.58.45-1.06,1.98-1.5,3.85,0,0,4.31-.76,5.86,1.95,1.55,2.72,5.01,3.98,5.01,3.98l6.3-8.41h.01c.04-.2,1.44-5.6,3.26-7.02.36-.29.74-.41,1.13-.3,2.36.67,7.23,3.25,10.58.87-1.11-1.59,7.57-14.03,12.55-22.4,4.98-8.36,4.29-11.22,4.18-20.59-.1-9.37-.26-20.01,1.27-34.94.11-1.03.22-2,.34-2.92-.16.75-2.82,12.77-4.25,13.13-1.49.37-5.19-2.48-6.73-2.54-1.53-.05-3.28,0-3.65-6.09-.37-6.08-2.7-4.6-.64-10.42,2.07-5.83,2.76-9.8,2.33-13.66-.42-3.87.32-12.29,1.27-14.4.96-2.12,6.04-.59,6.68,5.29.63,5.88,1.42,2.91,3.07,2.54,1.64-.37,2.43.21,3.7-1.43,1.27-1.64,4.32-2.84,4.55,1.51.77-6.35.98-15.4,1.03-19.87-4.8-1.36-7.63-6.61-7.63-6.61ZM82.16,130.81c-2.01,3.23-3.49,1.16-4.07-1.69-.58-2.86-2.01-3.66-2.91-5.03-.19-.29-.64-2.09-1.23-4.74,1.45.27,3.85.54,4.98-.26,1.29-.91,4.98-.55,6.98-1.45-.26,5.09-2.06,10.47-3.75,13.17Z"/>
      <path class="cls-2" d="M119.65,14.34c-.19,4.61-.67,8.68-1.35,12.27v.05c-1.35,7.07-3.46,12.28-5.68,16.15-1.18,2.05-2.39,3.71-3.53,5.08-.91,1.09-1.78,1.99-2.56,2.73-.4.39-.78.73-1.12,1.04-4.29,3.81-4.4,3.23-4.61.59-.21-2.65-1.06-3.92-2.91-2.28-1.86,1.64-1.27-3.18-2.54-3.28-1.27-.11-1.86-1.12-2.17-2.65-.32-1.54-6.41.95-3.5-1.32,2.91-2.28,1.59-3.5-.95-3.13-2.54.37-2.12-1.06-.21-2.49,1.4-1.06-.13-1.44-1.71-1.53-.56-.03-1.13-.03-1.58,0-1.71.1,4.82-6.09,7.31-9.37,2.49-3.28,5.51-5.51,8.47-11.86,2.97-6.35,7.68-7.31,13.92-6.83,6.25.48,4.72,6.83,4.72,6.83Z"/>
      <path class="cls-2" d="M76.75,183.45s16.13-35.24,16.87-39.26,1.66-11.12,3.07-14.33,1.16-6-.35-8.15-1.02-2.61-1.02-2.61"/>
      <path class="cls-13" d="M85.91,117.64c-.26,5.09-2.06,10.47-3.75,13.17-2.01,3.23-3.49,1.16-4.07-1.69-.58-2.86-2.01-3.66-2.91-5.03-.19-.29-.64-2.09-1.23-4.74,1.45.27,3.85.54,4.98-.26,1.29-.91,4.98-.55,6.98-1.45Z"/>
      <path class="cls-2" d="M92.54,58.49c-3.6,11.38-11.49,21.6-11.49,21.6,0,0,3.55,16.31,3.3,22.13-.25,5.83,1.04,6.67,1.52,12.5.08.95.09,1.93.04,2.92"/>
      <path class="cls-16" d="M67.64,87.99c.12.64,4.15,21.69,6.31,31.36"/>
      <path class="cls-16" d="M73.95,119.35c-.72-.13-1.21-.26-1.21-.26"/>
      <path class="cls-13" d="M113.13,77.1v.03c-.13,1.01-.27,1.95-.42,2.8-1.38,7.59-4.27,10.78-5.9,23.2,0,0,0,.01-.01.04-.16.75-2.82,12.77-4.25,13.13-1.49.37-5.19-2.48-6.73-2.54-1.53-.05-3.28,0-3.65-6.09-.37-6.08-2.7-4.6-.64-10.42,2.07-5.83,2.76-9.8,2.33-13.66-.42-3.87.32-12.29,1.27-14.4.96-2.12,6.04-.59,6.68,5.29.63,5.88,1.42,2.91,3.07,2.54,1.64-.37,2.43.21,3.7-1.43,1.27-1.64,4.32-2.84,4.55,1.51Z"/>
      <path class="cls-2" d="M116.05,57.54c-.66-.03-1.29-.14-1.89-.31-4.8-1.36-7.63-6.61-7.63-6.61.78-.74,1.65-1.64,2.56-2.73,1.14-1.37,2.35-3.03,3.53-5.08,1.77,1.2,2.69,3.57,3.21,6.02.58,2.71.68,5.52.9,6.96.43,2.76-.68,1.75-.68,1.75Z"/>
      <path class="cls-2" d="M118.3,26.66c-.05,1-.88,16.67-2.47,22.17-.52-2.45-1.44-4.82-3.21-6.02,2.22-3.87,4.33-9.08,5.68-16.15Z"/>
    </g>
  </g>
  <g id="Frame_5" data-name="Frame 5">
    <g id="Sassy-5" data-name="Sassy">
      <path class="cls-13" d="M98.79,191.9c-2.7,1.91-7.41,1.38-10.11,2.55-2.7,1.16-17.47-2.18-16.63-6.3.85-4.13,1.01-6.36,2.54-7.95,0,0,1.77.66,5.19,3.52,3.43,2.85,8.37.45,8.37.45,0,0,2.77,2.02,7.55,3.23,4.78,1.22,5.79,2.6,3.09,4.5Z"/>
      <path class="cls-13" d="M48.06,70.6c-3.61,1.51-6.34,2.63-6.93,2.72-2.01.31-1.9-2.55-2.88-1.7-.98.85-4.45,5.06-4.34,2.33.1-2.73-.27-3.76-1.56-4.23-1.3-.48.66-1.83,1.43-3.5.31-.68,2.52-2.25,6.21-4.37,0,0,5.96.14,5.96,1.35s.27,2.55,1.43,3.23c1.17.69.68,4.17.68,4.17Z"/>
      <path class="cls-13" d="M108.17,89.48s-.04.08-.04.08c-.23.37-.43.85-.61,1.47-1.06,3.67.21,10.94-4.97,16.27,0,0-2.49,2.92-5.06,3-2.57.07-13.1-.35-12.73-5.35s7.38-14.06,7.52-15.91c.13-1.85,3.17-11.59,5.03-13.63.51-.55.81-.89.97-1.08,1.55,2.43,10.01,11.48,10.67,11.96.59.42-.54,2.72-.78,3.19Z"/>
      <path class="cls-13" d="M157.36,107.68c-6.32,1.21-8.65-2.21-13.13-2.32-3.6-.08-5.47.2-8.63-1.52.27-.05,4.21-.85,3.9-3.05-.32-2.27,1.06-1.9,2.28-1.9s-1.75-3.55-.27-3.34,1.33-2.7,1.33-2.7c.35.19.65.34.89.44,2.79,1.17,19.95,13.18,13.63,14.39Z"/>
      <path class="cls-13" d="M18.27,167.44l-.05.03-1.76.93s-2.46,6.25-.75,9.95c1.71,3.71-2.53,10.38-5.18,5.08-2.64-5.29-3.49-8.47-6.03-12.38-2.54-3.92-6.25-16.1-2.22-17.05,2.5-.59,6.08.33,9.8-.65.06,1.12.25,3.25.82,6.45.63,3.54,3.65,6.31,5.37,7.64Z"/>
      <path class="cls-2" d="M72.95,65.44c.31-1.61.15-3.18-.79-3.77-1.21-.75-15.29,5.26-24.1,8.93,0,0,.49-3.48-.68-4.17-1.16-.68-1.43-2.01-1.43-3.23s-5.96-1.35-5.96-1.35c5.31-3.05,13.67-7.27,23.8-11.69,12.25-5.34,20.54-7.48,24.74-9.44-.37.51-12.13,16.86-15.58,24.72Z"/>
      <path class="cls-2" d="M141.78,98.89c-1.22,0-2.6-.37-2.28,1.9.31,2.2-3.63,3-3.9,3.05h-.01c-.77-.42-1.61-.96-2.58-1.65-4.95-3.53-16.06-10.24-19.31-12.04-2.67-1.48-4.4-2.41-5.53-.67.24-.47,1.37-2.77.78-3.19-.66-.48-9.12-9.53-10.67-11.96.46-.52-.02-.03-.02-.03.01.01.01.02.02.03-.16.19-.46.53-.97,1.08-1.86,2.04-4.9,11.78-5.03,13.63-.14,1.85-7.15,10.91-7.52,15.91s10.16,5.42,12.73,5.35c2.57-.08,5.06-3,5.06-3,0,0-1.13,9.92,1.27,14.26,2.4,4.34,6.6,7.7,6.67,19.94.07,12.25.63,12.6-6.99,21.15-7.62,8.54-17.12,18.52-15.35,21.52,0,0-4.94,2.4-8.37-.45-3.42-2.86-5.19-3.52-5.19-3.52,1.54-1.58,9.74-19.43,12.29-26.04,2.54-6.62,5.34-7.73,5.34-7.73,0,0-5.87-3.81-7.67-7.47-1.18-2.4-3.12-5.15-4.74-6.9-.83-.91-1.58-1.55-2.09-1.73-1.49-.53-17.9,10.33-21.13,12.29-3.23,1.95-7.73,6.83-13.34,8.78-5.61,1.96-6.24,6.57-15.56,11.1l-9.42,4.94c-1.72-1.33-4.74-4.1-5.37-7.64-.57-3.2-.76-5.33-.82-6.45,2.25-.6,4.56-1.89,6.71-4.65,5.72-7.3,24.04-24.77,25.73-30.91,1.7-6.14,7.94-9.53,8.69-12.82.74-3.28,16.83-34.2,18.31-36.1.66-.84,1.19-2.15,1.43-3.43,3.45-7.86,15.21-24.21,15.58-24.72h0c1.68-.8,2.7-1.56,3.07-2.49.26-.65.8-1.24,1.49-1.75.06.05.13.09.2.13,2.33,1.34,10.23,2.71,9.11,4.11-1.13,1.4-2.19,4.71,2.32,5.14,4.52.42,4.59-.07,4.88,2.11.24,1.88,1.24,3.97,4.02,2.72l3.25,4.41s1.16,9.43-.89,8.05c-.24-.16-.53-.41-.86-.73,0,0-.34,3.55,3.02,7.65,3.35,4.09,1.8,6,7.02,10.2,4.77,3.84,13.99,10.56,17.67,12.58,0,0,.15,2.91-1.33,2.7s1.48,3.34.27,3.34Z"/>
      <path class="cls-2" d="M125.66,31.51v.02c-.24.49-.38.77-.38.77,0,0-1.82,4.29-4.11,8.68l-6.5,9.14-.02.02c-.37.23-.71.41-1.02.55-2.78,1.25-3.78-.84-4.02-2.72-.29-2.18-.36-1.69-4.88-2.11-4.51-.43-3.45-3.74-2.32-5.14,1.12-1.4-6.78-2.77-9.11-4.11-.07-.04-.14-.08-.2-.13-2.04-1.41-.61-4.58,2.95-6.22,3.67-1.7,13.13-14.54,18.64-21.25,5.5-6.71,8.33-4.45,13.76.99,4.73,4.73-1.17,18.11-2.79,21.51Z"/>
      <path class="cls-2" d="M123.93,58.56s-9.11-4.07-9.28-8.42l.02-.02,6.5-9.14c1.07,1.3,1.72,3.97,2.13,6.83.71,5.06.63,10.75.63,10.75Z"/>
      <path class="cls-2" d="M125.66,31.53l-.05.35-1.69,11.69-.17,1.16-.15,1.02-.21,1.46-.09.6c-.41-2.86-1.06-5.53-2.13-6.83,2.29-4.39,4.11-8.68,4.11-8.68,0,0,.14-.28.38-.77Z"/>
      <path class="cls-2" d="M123.39,47.21c.05-.35.12-.85.21-1.46l-.21,1.46Z"/>
      <path class="cls-2" d="M125.61,31.88c-.32,2.39-1.12,7.83-1.69,11.69l1.69-11.69Z"/>
      <path class="cls-2" d="M108.19,54.05s4.48,6.01,6.94,8.37"/>
      <line class="cls-1" x1="98.26" y1="74.3" x2="93.18" y2="66.2"/>
      <path class="cls-2" d="M99.27,121.03s-6.46,11.44-8.15,10.27.78-4.02-1.94-2.93-3.59,3.52-9.36,3.68"/>
    </g>
  </g>
  <g id="Frame_6" data-name="Frame 6">
    <g id="Sassy-6" data-name="Sassy">
      <path class="cls-13" d="M53.7,196.93c-2.99,3.34-4.89-.58-6.21-4.39-1.33-3.81-2.54-18.27-2.33-20.38.05-.5,1.15-1.35,2.85-2.41,0,0,6.25,1.54,8.27,7.65,0,0,.42,16.2-2.58,19.53Z"/>
      <path class="cls-2" d="M101.06,80.94c2.4-2.82,1.77-9.04,5.02-8.61,3.24.42,4.37.99,4.8,3.32.42,2.32.35,4.23,2.04,3.67,1.7-.57,2.96-4.19,5.86-2.13.66-4.62,1.26-10.28,1.59-13.65-.89-.63-1.88-1.34-2.82-1.84-2.9-1.51-2.51-5.91-2.51-5.91-.1.11-.21.21-.32.32-2.06,2.01-5.13-.32-5.45-3.02-.32-2.7-2.01-1.53-6.09-2.49-4.07-.95-2.75-3.12-1.59-4.65.97-1.28-3.57-2.26-6.99-4.07-1.39.15-2.96.47-4.65,1.05-5.56,1.9-8.53,5.19-12.82,17.2-2.58,7.24-3.36,15.77-3.57,22.72v.03c-.14,4.57-.03,8.45-.03,10.82,0,5.98-2.27,27.9-2.38,38.96-.1,11.07,6.46,16.52,6.46,16.52,0,0-6.4,4.24-9.63,8.26-2.47,3.08-14.41,8.83-19.97,12.31,0,0,6.25,1.54,8.27,7.65,0,0,5.4,1.27,10.85-2.81,5.45-4.07,16.68-7.99,22.87-12.33,2.75-1.93,4.51-2.91,5.74-4.11.45-.61.89-1.2,1.32-1.77-.37.7-.8,1.25-1.32,1.77-5.33,7.1-13.11,16.72-13.11,16.72-1.16,1.28-2.06,2.7-2.74,4.13,1.57,2.64,5.92,8.05,14.31,5.44-.07-.05-.13-.08-.18-.11-.74-.42,15.36-15.72,19.64-21.07,4.29-5.34,3.66-13.71,3.87-21.6.21-7.89-.42-9.9-3.07-17.52-2.62-7.56-2.91-9.92-2.2-19.18-.13.8-.57,3.66-1.27,6.27-.05.18-.1.35-.15.53-.05.2-.11.41-.18.61-.06.2-.13.4-.19.59-.05.15-.1.3-.16.45-.07.18-.14.36-.21.53-.21.51-.43.95-.67,1.29-.06.09-.13.18-.2.25-.05.07-.11.13-.17.18-.15.14-.3.23-.46.27-.06.03-.12.04-.19.04-2.83.12-6.92,1.89-7.63.55-.7-1.35-6.35-9.11-5.65-11.79.71-2.68,3.53-20.97,5.93-23.79ZM83.84,135.36c-4.02.99-1.27-.77-4.8-11.71,0-.04-.02-.07-.03-.11,1.66.91,4.59,1.46,9.31-.74-.27,4.8-1.12,11.73-4.48,12.56Z"/>
      <path class="cls-13" d="M104.2,191.96c-4.46,1.48-12.67,2.38-16.64,1.27-3.97-1.11-10.85-1.54-9.95-4.87,0,0,.04-4.71,2.28-9.36,1.57,2.64,5.92,8.05,14.31,5.44.98.6,3.94,2.54,6.81,3.18,3.07.68,7.64,2.85,3.19,4.34Z"/>
      <path class="cls-13" d="M88.32,122.8c-.27,4.8-1.12,11.73-4.48,12.56-4.02.99-1.27-.77-4.8-11.71,0-.04-.02-.07-.03-.11,1.66.91,4.59,1.46,9.31-.74Z"/>
      <path class="cls-7" d="M97.06,156.38c1.88-2.57,3.27-4.59,3.53-5.35"/>
      <path class="cls-2" d="M97.06,156.38c.68-1.31,1.14-3.11,1.62-6.03,1.33-8.05-1.16-20.02.53-21.55"/>
      <path class="cls-7" d="M102.44,138.69s5.29-5.61,5.24-9.58"/>
      <path class="cls-15" d="M95.03,184.16c-.28.1-.56.2-.83.28"/>
      <path class="cls-15" d="M79.89,179c-.47-.8-.69-1.34-.69-1.34"/>
      <path class="cls-2" d="M88.32,122.8c.06-.95.09-1.82.11-2.54.14-4.38.99-18.21-.35-26.26-1.35-8.05-1.35-10.59,1.62-16.38,2.96-5.79,4.59-17.08,5.43-17.08"/>
      <path class="cls-2" d="M73.56,82.88c.08,1.13,2.01,29.84,5.45,40.66"/>
      <path class="cls-15" d="M107.77,85.81s5.08.07,5.22.56"/>
      <path class="cls-13" d="M118.78,77.19c-.34,2.36-.69,4.44-1.04,5.81-1.29,5.1-4.28,11.43-5.27,19.91,0,0,0,.03-.01.09,0,.03-.01.06-.01.1s-.01.09-.01.15l-.15,1.51c-.08.42-1.58,11.11-3.88,11.21-2.83.12-6.92,1.89-7.63.55-.7-1.35-6.35-9.11-5.65-11.79.71-2.68,3.53-20.97,5.93-23.79,2.4-2.82,1.77-9.04,5.02-8.61,3.24.42,4.37.99,4.8,3.32.42,2.32.35,4.23,2.04,3.67,1.7-.57,2.96-4.19,5.86-2.13Z"/>
      <path class="cls-2" d="M125.21,36.79s-1.85,4.46-3.42,7.89c-.56,1.21-1.07,2.29-1.46,3.01-1.48,2.76.43,8.47-1.27,6.67-1.56-1.66-2.17-.47-3.9,1.31-.04.04-.08.08-.12.12-.1.11-.21.21-.32.32-2.06,2.01-5.13-.32-5.45-3.02-.32-2.7-2.01-1.53-6.09-2.49-4.07-.95-2.75-3.12-1.59-4.65.97-1.28-3.57-2.26-6.99-4.07-.7-.38-1.35-.78-1.9-1.23-3.23-2.65,9.16-10.16,11.49-12.6,2.33-2.43,2.8-5.4,8.79-12.39,5.98-6.99,9.79-6.14,14.87-2.01,5.08,4.13-2.64,23.14-2.64,23.14Z"/>
      <path class="cls-2" d="M123.48,63.75c.19,2.05-1.26,1.1-3.11-.21-.89-.63-1.88-1.34-2.82-1.84-2.9-1.51-2.51-5.91-2.51-5.91.04-.04.08-.08.12-.12,1.73-1.78,2.34-2.97,3.9-1.31,1.7,1.8-.21-3.91,1.27-6.67.39-.72.9-1.8,1.46-3.01.81,1.56,1.3,3.36,1.58,5.24.83,5.48-.11,11.57.11,13.83Z"/>
      <path class="cls-2" d="M123.37,49.92c-.28-1.88-.77-3.68-1.58-5.24,1.57-3.43,3.42-7.89,3.42-7.89,0,0,1.03,8.75-1.84,13.13Z"/>
      <path class="cls-13" d="M105.99,82.74s7.01-.04,7.01,1.8"/>
    </g>
  </g>
  <g id="Frame_7" data-name="Frame 7">
    <g>
      <path class="cls-13" d="M140.95,188.18c-5.09-.16-13.84.94-13.84-.53s.85-7.08-.41-8.16c.18.16,2.38,2.02,5.35-.01,3.11-2.12,4.54-2.93,4.54-2.93.13.5.24.81.33.88.78.64,7.98,5.86,7.41,6.99-.56,1.13,1.7,3.93-3.38,3.76Z"/>
      <path class="cls-13" d="M94.61,187.39c-4.24,2.75-7.03,6.74-14.09,6.03-7.06-.7-6.7-1.48-5.82-5.57.19-.86.44-2.03.74-3.4,0,0,6.07.89,9.53-.45,3.46-1.34,4.87-1.52,4.87-1.52,1.17.74,9.02,2.15,4.77,4.91Z"/>
      <path class="cls-2" d="M136.59,176.55s-1.43.81-4.54,2.93c-2.97,2.03-5.17.17-5.35.01h-.01c-1.27-1.07-3.74-4.67-4.17-9.19-.42-4.51-5.57-17.43-5.43-18.98.14-1.56-7.61-16.17-12.03-18.92,0,.21-.03,9.49-5.27,21.31-5.29,11.94-11.11,28.03-9.95,28.77,0,0-1.41.18-4.87,1.52-3.46,1.34-9.53.45-9.53.45,1.16-5.09,3.13-12.93,5.61-17.92,3.14-6.32,2.58-16.31.64-22.8-1.94-6.5-6.31-20.84-9.74-26.71-3.43-5.87-1.94-17.73-.18-24.29,1.76-6.57,4.94-24.71,8.75-31.77,2.4-4.44,5.55-10,7.56-13.51,1.82.49,3.25.92,3.53,1.51.42.92,2.68-1.48,4.72-1.62,2.05-.14.57,1.97,3.25,1.83s5.37-.77,7.06.71c1.69,1.48,1.84,1.2,3.18,1.34s.84,2.33,3.03,2.33c.85,0,1.84-.12,2.77-.36.94,4.96,2.27,13.64,1.26,19-1.46,7.65-3.57,24.39-3.67,25.17h0v.03s.02.04.07.12c.07.13.14.26.21.4.47.87,1.45,2.74,2.47,4.99,0,0-2.47,2.96-3.04,2.82-.56-.15-2.3-.87-3.46.98-1,1.61-2.01.89-2.27.67.44.46.79.84,1.1,1.16.15.17.29.32.41.46.45.49.73.84.99,1.2.14.2.27.4.41.64.14.23.3.5.49.82,1.56,2.61,3.82,7.9,5.79,7.69,1.98-.21,3.16-2.48,2.9-5.22,0,0,6.98,8.54,8.96,14.33,1.98,5.78,5.01,19.97,5.15,24.63.12,4.13,2.2,19.59,3.2,23.47Z"/>
      <path class="cls-1" d="M81.48,116.88s4.55,3.34,6.14,5.19,4.29,2.86,8.47,4.39,7.04,3.65,8.97,5.93"/>
      <path class="cls-1" d="M113.49,60.04s-.92,7.13-2.96,13.91-2.96,12.62,2.96,23.96"/>
      <path class="cls-13" d="M116.38,119.34c-1.97.21-4.23-5.08-5.79-7.69-1.02-1.72-1.06-1.82-3.44-4.32.15.14,1.24,1.1,2.31-.63,1.16-1.85,2.9-1.13,3.46-.98.57.14,3.04-2.82,3.04-2.82,1.7,3.71,3.51,8.41,3.32,11.22.26,2.74-.92,5.01-2.9,5.22Z"/>
      <path class="cls-1" d="M107.15,107.33l-.02-.02c-1.24-1.3-3.11-3.24-6.07-6.39-8.68-9.25-12.56-43.84-12.56-43.84"/>
      <path class="cls-1" d="M107.15,107.33l-.02-.02"/>
      <path class="cls-1" d="M126.7,179.49h-.01"/>
      <path class="cls-2" d="M118.78,51.08c-.35,1.04-1.68,1.73-3.16,2.11-.93.24-1.92.36-2.77.36-2.19,0-1.69-2.19-3.03-2.33s-1.49.14-3.18-1.34c-1.69-1.48-4.38-.85-7.06-.71s-1.2-1.97-3.25-1.83c-2.04.14-4.3,2.54-4.72,1.62-.28-.59-1.71-1.02-3.53-1.51-.97-.27-2.04-.55-3.11-.89-3.06-.98.56-3.03,2.05-4.8,1.48-1.76.28-3.24,2.96-6,2.68-2.75,6.57-15.74,9.67-22.8,3.11-7.06,8.4-7.26,13.84-4.02,5.43,3.24,5.29,20.82,5.29,20.82,0,0,.57,19.63,0,21.32Z"/>
    </g>
  </g>
  <g id="Frame_8" data-name="Frame 8">
    <g id="Sassy-7" data-name="Sassy">
      <path class="cls-13" d="M140.94,188.07c-5.09-.16-13.84.94-13.84-.53s.85-7.08-.41-8.16c.18.16,2.38,2.02,5.35-.01,3.11-2.12,4.54-2.93,4.54-2.93.13.5.24.81.33.88.78.64,7.98,5.86,7.41,6.99-.56,1.13,1.7,3.93-3.38,3.76Z"/>
      <path class="cls-13" d="M94.6,187.28c-4.24,2.75-7.03,6.74-14.09,6.03-7.06-.7-6.7-1.48-5.82-5.57.19-.86.44-2.03.74-3.4,0,0,6.07.89,9.53-.45,3.46-1.34,4.87-1.52,4.87-1.52,1.17.74,9.02,2.15,4.77,4.91Z"/>
      <path class="cls-2" d="M136.64,176.55s-.02.01-.06.04t-.01,0c-.14.09-.43.26-.87.54-.74.45-1.93,1.21-3.6,2.35-.13.09-.26.17-.38.24-.07.04-.14.08-.2.12-.12.06-.24.12-.36.17-.06.03-.12.06-.18.08-.03.01-.05.02-.08.03-.02.01-.03.01-.04.02-.02,0-.04,0-.05,0-.03.02-.05.03-.08.04h0c-.15.05-.29.09-.43.12-.17.04-.34.07-.5.08-.14.02-.27.03-.4.03-.05,0-.1,0-.15-.01-.16.01-.3-.01-.44-.03-.16-.02-.31-.05-.45-.09-.11-.03-.22-.06-.33-.1-.09-.03-.18-.06-.26-.1-.09-.04-.17-.08-.25-.11-.42-.22-.67-.44-.73-.49h-.01c-1.27-1.07-3.74-4.67-4.17-9.19-.42-4.51-5.57-17.43-5.43-18.98.14-1.56-7.61-16.17-12.03-18.92v.02s-.02-.01-.03-.02c0,.21-.03,9.49-5.27,21.31-5.11,11.54-10.72,26.95-10.04,28.64-1.02-1.01,4.74-16.91,9.98-28.74,5.15-11.61,5.27-20.77,5.27-21.29-.01-.01-.02-.01-.03-.02,0,.21-.03,9.49-5.27,21.31-5.29,11.94-11.11,28.03-9.95,28.77h.01s.05.08.08.1c-.01.01-.02.01-.04.01-.03,0-.07.01-.11.02-.03,0-.06,0-.09.02-.09.01-.21.04-.36.08-.08.01-.17.03-.26.06-.01.01-.03.01-.04.01-.11.02-.23.05-.36.1-.13.04-.28.08-.43.12-.08.03-.16.05-.24.07-.08.02-.16.05-.25.08-.17.06-.36.12-.56.18-.17.05-.36.12-.55.19-.02.01-.05.02-.08.03h-.01c-.11.04-.23.08-.35.12-.35.13-.73.27-1.14.43-.06.02-.12.04-.18.07-.08.03-.16.06-.25.08-.07.03-.14.05-.21.07-.18.05-.37.1-.56.14-.21.05-.42.09-.64.13-.31.05-.63.1-.95.13-.24.02-.48.05-.73.06-.22.02-.44.03-.66.04-.12.01-.24.01-.36.01-2.61.06-4.96-.28-4.96-.28,1.16-5.09,3.13-12.93,5.61-17.92,3.14-6.32,2.58-16.31.64-22.8-1.94-6.5-6.31-20.84-9.74-26.71-2.65-4.53-2.36-12.64-1.29-19.11l-.45-9.7c-.99,4.87-3.67,7.84-4.59,8.75-.53.53-1.87,3.96-3.54,7.09-2.32.04-6.01-5.31-6.22-5.6h0c1.68-4.49,4.14-11.95,5.59-15.82,2.05-5.43,1.63-3.31,5.79-12.42,4.17-9.11,4.66-12,7.77-15.74,1.67-2.01,5.23-4.22,8.15-5.81.03.35.18.61.46.73,1.83.84,4.16-.57,4.45,0,.28.56,2.68,2.11,5.01.27,2.33-1.83,1.97,1.53,3.6.87,1.62-.65,3.67-4.04,4.94-1.5,1.27,2.54,6.42.99,7.69.14.7-.46,1.42-1.26,2.19-1.62,1.32,1.76,2.88,3.87,4.03,5.58,2.47,3.67,3.31,15.67,5.25,23.15,1.93,7.48,10.84,18.99,10.84,18.99,0,0,1.04,2.09,2.27,4.93-2.99.82-7.38,1.84-7.63,1.9h-.01c-5.78-5.64-13.12-12.27-13.12-12.27v17.23c2.89,1.55,13.69,18.34,13.69,18.34.53,1.02.98,2.02,1.3,2.95,1.98,5.78,5.01,19.97,5.15,24.63.12,4.13,2.2,19.59,3.2,23.47,0,0-.02,0-.06.04.03-.01.05-.02.06-.03.02,0,.03,0,.03,0-1-3.88-3.08-19.34-3.2-23.47-.14-4.66-3.17-18.85-5.15-24.63-.09-.26-.19-.54-.3-.82.14.31.25.62.36.92,1.98,5.78,5.01,19.97,5.15,24.63.12,4.13,2.2,19.59,3.2,23.47Z"/>
      <path class="cls-2" d="M99.78,153.61c-5.24,11.83-11,27.73-9.98,28.74.01.01.01.02.01.02.01,0,.02,0,.02.01h-.03c-1.16-.74,4.66-16.83,9.95-28.77,5.24-11.82,5.27-21.1,5.27-21.31.01.01.02.01.03.02,0,.52-.12,9.68-5.27,21.29Z"/>
      <path class="cls-2" d="M81.46,116.78s4.55,3.34,6.14,5.19,4.29,2.86,8.47,4.39,7.04,3.65,8.97,5.93"/>
      <path class="cls-13" d="M62.16,104.05c-1.2,2.27-2.58,4.38-3.94,5.12-3.25,1.77-2.61,5.09-4.59,6.74-1.98,1.66-.57-1.3-1.77-5.18-1.2-3.88,1.49-7.41,2.55-8.76.3-.39.85-1.71,1.53-3.52.21.29,3.9,5.64,6.22,5.6Z"/>
      <path class="cls-13" d="M137.84,114.47c-1.2,4.52-4.45-2.82-4.66-4.8-.09-.77-3.14-3.96-6.84-7.57.25-.06,4.64-1.08,7.63-1.9h0c2.04,4.69,4.61,11.45,3.86,14.27Z"/>
      <line class="cls-2" x1="113.21" y1="107.38" x2="113.21" y2="107.06"/>
      <path class="cls-2" d="M116.03,43.95c.99,6.42-.92,5.44-2.47,3.95-.69-.66-1.35-.65-1.98-.35-.77.36-1.49,1.16-2.19,1.62-1.27.85-6.42,2.4-7.69-.14-1.27-2.54-3.32.85-4.94,1.5-1.63.66-1.27-2.7-3.6-.87-2.33,1.84-4.73.29-5.01-.27-.29-.57-2.62.84-4.45,0-.28-.12-.43-.38-.46-.73-.24-1.95,2.84-6.81,4.69-8.73,2.19-2.26,2.48-3.96,3.53-8.76,1.06-4.8,3.46-9.38,7.13-15.67,3.67-6.28,4.94-9.1,10.24-9.45,5.29-.36,6,2.89,8.75,11.22,2.75,8.33-1.55,26.68-1.55,26.68Z"/>
      <path class="cls-2" d="M70.29,88.21s.42-4.59,3.32-11.79,1.27-11.93,3.18-13.48.92-6.92,2.68-7.48"/>
      <path class="cls-2" d="M100.64,63.08s.66,5.29,2.66,6.99,5.17,4.59,5.39,7.41,1.56,9.66,4.52,12.35"/>
    </g>
  </g>
</svg>